<?xml version="1.0" encoding="utf-8"?>
<!-- Generator: Adobe Illustrator 18.1.1, SVG Export Plug-In . SVG Version: 6.00 Build 0)  -->
<svg version="1.1" id="_x34_04" xmlns="http://www.w3.org/2000/svg" xmlns:xlink="http://www.w3.org/1999/xlink" x="0px" y="0px"
	 viewBox="0 0 3000 2025" enable-background="new 0 0 3000 2025" xml:space="preserve">
<rect display="none" fill="#F1F2F2" width="3000" height="2025"/>
<g>
	<ellipse opacity="0.27" fill="#BCBEC0" cx="1545.9" cy="1169.1" rx="1333" ry="58.5"/>
	<g>
		<g>
			<g>
				<defs>
					<path id="XMLID_6_" d="M529.1,819.6l-1.7,342.2c0,5.9-4.8,10.6-10.7,10.5l-60-0.3c-5.9,0-10.6-4.8-10.5-10.7l1.7-342.2
						c0-5.9,4.8-10.6,10.7-10.5l60,0.3C524.4,809,529.1,813.8,529.1,819.6z"/>
				</defs>
				<use xlink:href="#XMLID_6_"  overflow="visible" fill="#F7941D"/>
				<clipPath id="XMLID_12_">
					<use xlink:href="#XMLID_6_"  overflow="visible"/>
				</clipPath>
				
					<rect x="321.4" y="963.1" transform="matrix(4.967029e-003 -1 1 4.967029e-003 -478.0693 1500.9745)" clip-path="url(#XMLID_12_)" fill="#F26522" width="387.5" height="55.2"/>
				<path clip-path="url(#XMLID_12_)" fill="#F9AB5D" d="M460,818.8l-1.7,343.1c0,8.7-7.2,15.8-15.9,15.7l0,0
					c-8.7,0-15.8-7.2-15.7-15.9l1.7-343.1c0-8.7,7.2-15.8,15.9-15.7l0,0C453,803,460.1,810.1,460,818.8z"/>
			</g>
			<g>
				<g>
					
						<rect x="470.1" y="1072.6" transform="matrix(4.972394e-003 -1 1 4.972394e-003 -628.5875 1594.616)" fill="#434D6A" width="33.8" height="81.2"/>
					
						<rect x="490.4" y="1093" transform="matrix(4.972394e-003 -1 1 4.972394e-003 -608.4863 1615.0193)" fill="#2A2D4B" width="33.8" height="40.6"/>
					
						<rect x="435.6" y="1106.9" transform="matrix(4.967148e-003 -1 1 4.967148e-003 -662.7534 1559.9404)" fill="#52607C" width="33.8" height="12.2"/>
				</g>
				<g>
					
						<rect x="471.3" y="827.3" transform="matrix(4.967148e-003 -1 1 4.967148e-003 -382.1195 1351.8019)" fill="#434D6A" width="33.8" height="81.2"/>
					
						<rect x="491.6" y="847.7" transform="matrix(4.967148e-003 -1 1 4.967148e-003 -362.0181 1372.2052)" fill="#2A2D4B" width="33.8" height="40.6"/>
					
						<rect x="436.8" y="861.6" transform="matrix(4.967148e-003 -1 1 4.967148e-003 -416.2877 1317.1207)" fill="#52607C" width="33.8" height="12.2"/>
				</g>
			</g>
		</g>
		<g>
			<g>
				<defs>
					<path id="XMLID_5_" d="M610.5,820l-1.7,342.2c0,5.9-4.8,10.6-10.7,10.5l-60-0.3c-5.9,0-10.6-4.8-10.5-10.7l1.7-342.2
						c0-5.9,4.8-10.6,10.7-10.5l60,0.3C605.8,809.4,610.5,814.2,610.5,820z"/>
				</defs>
				<use xlink:href="#XMLID_5_"  overflow="visible" fill="#F7941D"/>
				<clipPath id="XMLID_13_">
					<use xlink:href="#XMLID_5_"  overflow="visible"/>
				</clipPath>
				
					<rect x="402.9" y="963.5" transform="matrix(4.967506e-003 -1 1 4.967506e-003 -397.4268 1582.8274)" clip-path="url(#XMLID_13_)" fill="#F26522" width="387.5" height="55.2"/>
				<path clip-path="url(#XMLID_13_)" fill="#F9AB5D" d="M541.5,819.3l-1.7,343.1c0,8.7-7.2,15.8-15.9,15.7l0,0
					c-8.7,0-15.8-7.2-15.7-15.9l1.7-343.1c0-8.7,7.2-15.8,15.9-15.7l0,0C534.5,803.4,541.5,810.5,541.5,819.3z"/>
			</g>
			<g>
				<g>
					
						<rect x="551.6" y="1073" transform="matrix(4.968460e-003 -1 1 4.968460e-003 -547.9432 1676.4739)" fill="#434D6A" width="33.8" height="81.2"/>
					
						<rect x="571.9" y="1093.4" transform="matrix(4.968460e-003 -1 1 4.968460e-003 -527.8418 1696.877)" fill="#2A2D4B" width="33.8" height="40.6"/>
					
						<rect x="517" y="1107.3" transform="matrix(4.961903e-003 -1 1 4.961903e-003 -582.108 1641.7999)" fill="#52607C" width="33.8" height="12.2"/>
				</g>
				<g>
					
						<rect x="552.8" y="827.7" transform="matrix(4.967148e-003 -1 1 4.967148e-003 -301.4769 1433.6554)" fill="#434D6A" width="33.8" height="81.2"/>
					
						<rect x="573.1" y="848.1" transform="matrix(4.967148e-003 -1 1 4.967148e-003 -281.3755 1454.0586)" fill="#2A2D4B" width="33.8" height="40.6"/>
					
						<rect x="518.3" y="862.1" transform="matrix(4.967148e-003 -1 1 4.967148e-003 -335.6452 1398.9741)" fill="#52607C" width="33.8" height="12.2"/>
				</g>
			</g>
		</g>
		<g>
			<g>
				<defs>
					<path id="XMLID_4_" d="M691.2,820.4l-1.7,342.2c0,5.9-4.8,10.6-10.7,10.5l-60-0.3c-5.9,0-10.6-4.8-10.5-10.7L610,820
						c0-5.9,4.8-10.6,10.7-10.5l60,0.3C686.5,809.8,691.2,814.6,691.2,820.4z"/>
				</defs>
				<use xlink:href="#XMLID_4_"  overflow="visible" fill="#F7941D"/>
				<clipPath id="XMLID_14_">
					<use xlink:href="#XMLID_4_"  overflow="visible"/>
				</clipPath>
				
					<rect x="483.6" y="963.9" transform="matrix(4.967506e-003 -1 1 4.967506e-003 -317.5399 1663.9138)" clip-path="url(#XMLID_14_)" fill="#F26522" width="387.5" height="55.2"/>
				<path clip-path="url(#XMLID_14_)" fill="#F9AB5D" d="M622.2,819.7l-1.7,343.1c0,8.7-7.2,15.8-15.9,15.7l0,0
					c-8.7,0-15.8-7.2-15.7-15.9l1.7-343.1c0-8.7,7.2-15.8,15.9-15.7h0C615.2,803.8,622.2,810.9,622.2,819.7z"/>
			</g>
			<g>
				<g>
					
						<rect x="632.2" y="1073.4" transform="matrix(4.967148e-003 -1 1 4.967148e-003 -468.0555 1757.5615)" fill="#434D6A" width="33.8" height="81.2"/>
					
						<rect x="652.5" y="1093.8" transform="matrix(4.967148e-003 -1 1 4.967148e-003 -447.9542 1777.9648)" fill="#2A2D4B" width="33.8" height="40.6"/>
					
						<rect x="597.7" y="1107.7" transform="matrix(4.961903e-003 -1 1 4.961903e-003 -502.2207 1722.8861)" fill="#52607C" width="33.8" height="12.2"/>
				</g>
				<g>
					
						<rect x="633.5" y="828.1" transform="matrix(4.972513e-003 -1 1 4.972513e-003 -221.5934 1514.7371)" fill="#434D6A" width="33.8" height="81.2"/>
					
						<rect x="653.8" y="848.5" transform="matrix(4.972513e-003 -1 1 4.972513e-003 -201.4921 1535.1404)" fill="#2A2D4B" width="33.8" height="40.6"/>
					
						<rect x="599" y="862.5" transform="matrix(4.967148e-003 -1 1 4.967148e-003 -255.7582 1480.0603)" fill="#52607C" width="33.8" height="12.2"/>
				</g>
			</g>
		</g>
	</g>
	<g>
		<path fill="#D1D3D4" d="M738.9,997.5H349.7V864.1l401.4-539.6h212.2v503.3h120.1v169.8H963.3v174.6H738.9V997.5z M771.7,827.8
			V585.2L593.4,827.8H771.7z"/>
		<path fill="#D1D3D4" d="M1302.8,1137.6c-59-35.2-104.5-85.9-136.4-152.2c-31.9-66.3-47.9-145.1-47.9-236.5
			c0-91.3,15.8-170.2,47.3-236.5c31.5-66.3,76.6-117.2,135.2-152.8c58.6-35.6,127.9-53.4,208-53.4c80,0,149.3,17.8,208,53.4
			c58.6,35.6,103.7,86.5,135.2,152.8c31.5,66.3,47.3,145.1,47.3,236.5c0,91.4-16,170.2-47.9,236.5c-32,66.3-77.4,117-136.4,152.2
			c-59,35.2-127.7,52.8-206.2,52.8C1430.6,1190.4,1361.8,1172.8,1302.8,1137.6z M1635.1,926c29.9-42,44.9-100.2,44.9-174.6
			c0-75.2-14.8-134.4-44.3-177.7c-29.5-43.2-71.8-64.9-126.7-64.9c-55,0-97.2,21.6-126.7,64.9c-29.5,43.3-44.3,102.5-44.3,177.7
			c0,74.4,14.9,132.6,44.9,174.6c29.9,42,71.9,63.1,126.1,63.1C1563.1,989,1605.2,968,1635.1,926z"/>
		<path fill="#D1D3D4" d="M2323.9,997.5h-389.3V864.1L2336,324.5h212.2v503.3h120.1v169.8h-120.1v174.6h-224.3V997.5z M2356.7,827.8
			V585.2l-178.3,242.5H2356.7z"/>
	</g>
	<g>
		<g>
			<g>
				<g>
					<g>
						<defs>
							<path id="XMLID_1_" d="M1770.3,1031.6l-336.8,3.7c-5.8,0.1-10.5-4.6-10.6-10.3l-0.7-59.1c-0.1-5.8,4.6-10.5,10.3-10.6
								l336.8-3.7c5.8-0.1,10.5,4.6,10.6,10.3l0.7,59.1C1780.7,1026.9,1776.1,1031.6,1770.3,1031.6z"/>
						</defs>
						<use xlink:href="#XMLID_1_"  overflow="visible" fill="#F7941D"/>
						<clipPath id="XMLID_15_">
							<use xlink:href="#XMLID_1_"  overflow="visible"/>
						</clipPath>
						
							<rect x="1411" y="993.6" transform="matrix(0.9999 -1.113226e-002 1.113226e-002 0.9999 -11.2636 17.8945)" clip-path="url(#XMLID_15_)" fill="#F26522" width="381.4" height="54.3"/>
						<path clip-path="url(#XMLID_15_)" fill="#F9AB5D" d="M1770,963.7l-337.7,3.8c-8.6,0.1-15.6-6.8-15.7-15.4l0,0
							c-0.1-8.6,6.8-15.6,15.4-15.7l337.7-3.8c8.6-0.1,15.6,6.8,15.7,15.4l0,0C1785.5,956.6,1778.6,963.6,1770,963.7z"/>
					</g>
					<g>
						<g>
							
								<rect x="1464.2" y="954.9" transform="matrix(0.9999 -1.113227e-002 1.113227e-002 0.9999 -10.9837 16.5463)" fill="#434D6A" width="33.2" height="79.9"/>
							
								<rect x="1464.4" y="994.9" transform="matrix(0.9999 -1.113227e-002 1.113227e-002 0.9999 -11.2061 16.55)" fill="#2A2D4B" width="33.2" height="40"/>
							
								<rect x="1463.8" y="954.9" transform="matrix(0.9999 -1.113233e-002 1.113233e-002 0.9999 -10.6056 16.5401)" fill="#52607C" width="33.2" height="12"/>
						</g>
						<g>
							
								<rect x="1705.6" y="952.2" transform="matrix(0.9999 -1.113227e-002 1.113227e-002 0.9999 -10.9388 19.2333)" fill="#434D6A" width="33.2" height="79.9"/>
							
								<rect x="1705.8" y="992.2" transform="matrix(0.9999 -1.113227e-002 1.113227e-002 0.9999 -11.1613 19.2371)" fill="#2A2D4B" width="33.2" height="40"/>
							
								<rect x="1705.2" y="952.2" transform="matrix(0.9999 -1.113233e-002 1.113233e-002 0.9999 -10.5608 19.2271)" fill="#52607C" width="33.2" height="12"/>
						</g>
					</g>
				</g>
				<g>
					<g>
						<defs>
							<path id="XMLID_2_" d="M1771.2,1111.8l-336.8,3.7c-5.8,0.1-10.5-4.6-10.6-10.3l-0.7-59.1c-0.1-5.8,4.6-10.5,10.3-10.6
								l336.8-3.7c5.8-0.1,10.5,4.6,10.6,10.3l0.7,59.1C1781.6,1107,1777,1111.7,1771.2,1111.8z"/>
						</defs>
						<use xlink:href="#XMLID_2_"  overflow="visible" fill="#F7941D"/>
						<clipPath id="XMLID_16_">
							<use xlink:href="#XMLID_2_"  overflow="visible"/>
						</clipPath>
						
							<rect x="1411.9" y="1073.7" transform="matrix(0.9999 -1.113226e-002 1.113226e-002 0.9999 -12.156 17.9094)" clip-path="url(#XMLID_16_)" fill="#F26522" width="381.4" height="54.3"/>
						<path clip-path="url(#XMLID_16_)" fill="#F9AB5D" d="M1770.9,1043.9l-337.7,3.8c-8.6,0.1-15.6-6.8-15.7-15.4l0,0
							c-0.1-8.6,6.8-15.6,15.4-15.7l337.7-3.8c8.6-0.1,15.6,6.8,15.7,15.4l0,0C1786.4,1036.7,1779.5,1043.8,1770.9,1043.9z"/>
					</g>
					<g>
						<g>
							
								<rect x="1465.1" y="1035.1" transform="matrix(0.9999 -1.113233e-002 1.113233e-002 0.9999 -11.8761 16.5613)" fill="#434D6A" width="33.2" height="79.9"/>
							
								<rect x="1465.3" y="1075.1" transform="matrix(0.9999 -1.113233e-002 1.113233e-002 0.9999 -12.0986 16.565)" fill="#2A2D4B" width="33.2" height="40"/>
							
								<rect x="1464.7" y="1035.1" transform="matrix(0.9999 -1.113227e-002 1.113227e-002 0.9999 -11.498 16.5549)" fill="#52607C" width="33.2" height="12"/>
						</g>
						<g>
							
								<rect x="1706.5" y="1032.4" transform="matrix(0.9999 -1.113233e-002 1.113233e-002 0.9999 -11.8313 19.2484)" fill="#434D6A" width="33.2" height="79.9"/>
							
								<rect x="1706.7" y="1072.4" transform="matrix(0.9999 -1.113233e-002 1.113233e-002 0.9999 -12.0537 19.2521)" fill="#2A2D4B" width="33.2" height="40"/>
							
								<rect x="1706.1" y="1032.4" transform="matrix(0.9999 -1.113227e-002 1.113227e-002 0.9999 -11.4531 19.2419)" fill="#52607C" width="33.2" height="12"/>
						</g>
					</g>
				</g>
				<g>
					<g>
						<defs>
							<path id="XMLID_3_" d="M1772.1,1191.2l-336.8,3.7c-5.8,0.1-10.5-4.6-10.6-10.3l-0.7-59.1c-0.1-5.8,4.6-10.5,10.3-10.6
								l336.8-3.7c5.8-0.1,10.5,4.6,10.6,10.3l0.7,59.1C1782.5,1186.4,1777.9,1191.2,1772.1,1191.2z"/>
						</defs>
						<use xlink:href="#XMLID_3_"  overflow="visible" fill="#F7941D"/>
						<clipPath id="XMLID_17_">
							<use xlink:href="#XMLID_3_"  overflow="visible"/>
						</clipPath>
						
							<rect x="1412.8" y="1153.1" transform="matrix(0.9999 -1.113226e-002 1.113226e-002 0.9999 -13.04 17.9242)" clip-path="url(#XMLID_17_)" fill="#F26522" width="381.4" height="54.3"/>
						<path clip-path="url(#XMLID_17_)" fill="#F9AB5D" d="M1771.8,1123.3l-337.7,3.8c-8.6,0.1-15.6-6.8-15.7-15.4l0,0
							c-0.1-8.6,6.8-15.6,15.4-15.7l337.7-3.8c8.6-0.1,15.6,6.8,15.7,15.4l0,0C1787.3,1116.1,1780.4,1123.2,1771.8,1123.3z"/>
					</g>
					<g>
						<g>
							
								<rect x="1466" y="1114.5" transform="matrix(0.9999 -1.113233e-002 1.113233e-002 0.9999 -12.7602 16.5761)" fill="#434D6A" width="33.2" height="79.9"/>
							
								<rect x="1466.2" y="1154.5" transform="matrix(0.9999 -1.113233e-002 1.113233e-002 0.9999 -12.9826 16.5798)" fill="#2A2D4B" width="33.2" height="40"/>
							
								<rect x="1465.6" y="1114.5" transform="matrix(0.9999 -1.113227e-002 1.113227e-002 0.9999 -12.382 16.5697)" fill="#52607C" width="33.2" height="12"/>
						</g>
						<g>
							
								<rect x="1707.3" y="1111.8" transform="matrix(0.9999 -1.113227e-002 1.113227e-002 0.9999 -12.7152 19.263)" fill="#434D6A" width="33.2" height="79.9"/>
							
								<rect x="1707.6" y="1151.8" transform="matrix(0.9999 -1.113227e-002 1.113227e-002 0.9999 -12.9377 19.2667)" fill="#2A2D4B" width="33.2" height="40"/>
							
								<rect x="1707" y="1111.8" transform="matrix(0.9999 -1.113233e-002 1.113233e-002 0.9999 -12.3372 19.2568)" fill="#52607C" width="33.2" height="12"/>
						</g>
					</g>
				</g>
			</g>
			<g>
				<g>
					<g>
						<defs>
							<path id="XMLID_10_" d="M2463.1,822.8l3.7,336.8c0.1,5.8-4.6,10.5-10.3,10.6l-59.1,0.7c-5.8,0.1-10.5-4.6-10.6-10.3
								l-3.8-336.8c-0.1-5.8,4.6-10.5,10.3-10.6l59.1-0.7C2458.3,812.4,2463,817.1,2463.1,822.8z"/>
						</defs>
						<use xlink:href="#XMLID_10_"  overflow="visible" fill="#F7941D"/>
						<clipPath id="XMLID_18_">
							<use xlink:href="#XMLID_10_"  overflow="visible"/>
						</clipPath>
						
							<rect x="2261.4" y="964.2" transform="matrix(-1.113229e-002 -0.9999 0.9999 -1.113229e-002 1488.0814 3454.4036)" clip-path="url(#XMLID_18_)" fill="#F26522" width="381.4" height="54.3"/>
						<path clip-path="url(#XMLID_18_)" fill="#F9AB5D" d="M2395.1,823.1l3.8,337.7c0.1,8.6-6.8,15.6-15.4,15.7l0,0
							c-8.6,0.1-15.6-6.8-15.7-15.4l-3.8-337.7c-0.1-8.6,6.8-15.6,15.4-15.7l0,0C2388,807.6,2395,814.5,2395.1,823.1z"/>
					</g>
					<g>
						<g>
							
								<rect x="2409.7" y="1072.4" transform="matrix(-1.113766e-002 -0.9999 0.9999 -1.113766e-002 1341.0382 3550.9065)" fill="#434D6A" width="33.2" height="79.9"/>
							
								<rect x="2429.7" y="1092.2" transform="matrix(-1.113766e-002 -0.9999 0.9999 -1.113766e-002 1361.4663 3570.6636)" fill="#2A2D4B" width="33.2" height="40"/>
							
								<rect x="2375.7" y="1106.7" transform="matrix(-1.113229e-002 -0.9999 0.9999 -1.113229e-002 1306.3021 3517.3184)" fill="#52607C" width="33.2" height="12"/>
						</g>
						<g>
							
								<rect x="2407" y="831" transform="matrix(-1.113229e-002 -0.9999 0.9999 -1.113229e-002 1579.6821 3304.1372)" fill="#434D6A" width="33.2" height="79.9"/>
							
								<rect x="2427" y="850.8" transform="matrix(-1.113229e-002 -0.9999 0.9999 -1.113229e-002 1600.11 3323.894)" fill="#2A2D4B" width="33.2" height="40"/>
							
								<rect x="2373" y="865.4" transform="matrix(-1.113766e-002 -0.9999 0.9999 -1.113766e-002 1544.9717 3270.5591)" fill="#52607C" width="33.2" height="12"/>
						</g>
					</g>
				</g>
				<g>
					<g>
						<defs>
							<path id="XMLID_9_" d="M2543.2,821.9l3.7,336.8c0.1,5.8-4.6,10.5-10.3,10.6l-59.1,0.7c-5.8,0.1-10.5-4.6-10.6-10.3
								l-3.7-336.8c-0.1-5.8,4.6-10.5,10.3-10.6l59.1-0.7C2538.4,811.5,2543.2,816.2,2543.2,821.9z"/>
						</defs>
						<use xlink:href="#XMLID_9_"  overflow="visible" fill="#F7941D"/>
						<clipPath id="XMLID_19_">
							<use xlink:href="#XMLID_9_"  overflow="visible"/>
						</clipPath>
						
							<rect x="2341.6" y="963.3" transform="matrix(-1.113182e-002 -0.9999 0.9999 -1.113182e-002 1570.0328 3533.6633)" clip-path="url(#XMLID_19_)" fill="#F26522" width="381.4" height="54.3"/>
						<path clip-path="url(#XMLID_19_)" fill="#F9AB5D" d="M2475.3,822.2l3.8,337.7c0.1,8.6-6.8,15.6-15.4,15.7l0,0
							c-8.6,0.1-15.6-6.8-15.7-15.4l-3.8-337.7c-0.1-8.6,6.8-15.6,15.4-15.7l0,0C2468.1,806.8,2475.2,813.6,2475.3,822.2z"/>
					</g>
					<g>
						<g>
							
								<rect x="2489.9" y="1071.5" transform="matrix(-1.113229e-002 -0.9999 0.9999 -1.113229e-002 1422.9777 3630.1611)" fill="#434D6A" width="33.2" height="79.9"/>
							
								<rect x="2509.8" y="1091.3" transform="matrix(-1.113229e-002 -0.9999 0.9999 -1.113229e-002 1443.4055 3649.9177)" fill="#2A2D4B" width="33.2" height="40"/>
							
								<rect x="2455.9" y="1105.8" transform="matrix(-1.112693e-002 -0.9999 0.9999 -1.112693e-002 1388.2411 3596.5725)" fill="#52607C" width="33.2" height="12"/>
						</g>
						<g>
							
								<rect x="2487.2" y="830.1" transform="matrix(-1.113229e-002 -0.9999 0.9999 -1.113229e-002 1661.6345 3383.3972)" fill="#434D6A" width="33.2" height="79.9"/>
							
								<rect x="2507.2" y="849.9" transform="matrix(-1.113229e-002 -0.9999 0.9999 -1.113229e-002 1682.0625 3403.1543)" fill="#2A2D4B" width="33.2" height="40"/>
							
								<rect x="2453.2" y="864.5" transform="matrix(-1.113229e-002 -0.9999 0.9999 -1.113229e-002 1626.9115 3349.8149)" fill="#52607C" width="33.2" height="12"/>
						</g>
					</g>
				</g>
				<g>
					<g>
						<defs>
							<path id="XMLID_8_" d="M2622.6,821l3.7,336.8c0.1,5.8-4.6,10.5-10.3,10.6l-59.1,0.7c-5.8,0.1-10.5-4.6-10.6-10.3l-3.7-336.8
								c-0.1-5.8,4.6-10.5,10.3-10.6l59.1-0.7C2617.8,810.7,2622.6,815.3,2622.6,821z"/>
						</defs>
						<use xlink:href="#XMLID_8_"  overflow="visible" fill="#F7941D"/>
						<clipPath id="XMLID_20_">
							<use xlink:href="#XMLID_8_"  overflow="visible"/>
						</clipPath>
						
							<rect x="2421" y="962.5" transform="matrix(-1.113182e-002 -0.9999 0.9999 -1.113182e-002 1651.2172 3612.1809)" clip-path="url(#XMLID_20_)" fill="#F26522" width="381.4" height="54.3"/>
						<path clip-path="url(#XMLID_20_)" fill="#F9AB5D" d="M2554.7,821.4l3.8,337.7c0.1,8.6-6.8,15.6-15.4,15.7l0,0
							c-8.6,0.1-15.6-6.8-15.7-15.4l-3.8-337.7c-0.1-8.6,6.8-15.6,15.4-15.7l0,0C2547.6,805.9,2554.6,812.8,2554.7,821.4z"/>
					</g>
					<g>
						<g>
							
								<rect x="2569.3" y="1070.6" transform="matrix(-1.112693e-002 -0.9999 0.9999 -1.112693e-002 1504.1482 3708.6726)" fill="#434D6A" width="33.2" height="79.9"/>
							
								<rect x="2589.3" y="1090.4" transform="matrix(-1.112693e-002 -0.9999 0.9999 -1.112693e-002 1524.5758 3728.4294)" fill="#2A2D4B" width="33.2" height="40"/>
							
								<rect x="2535.3" y="1105" transform="matrix(-1.113766e-002 -0.9999 0.9999 -1.113766e-002 1469.4523 3675.1016)" fill="#52607C" width="33.2" height="12"/>
						</g>
						<g>
							
								<rect x="2566.6" y="829.2" transform="matrix(-1.113229e-002 -0.9999 0.9999 -1.113229e-002 1742.819 3461.9148)" fill="#434D6A" width="33.2" height="79.9"/>
							
								<rect x="2586.6" y="849" transform="matrix(-1.113229e-002 -0.9999 0.9999 -1.113229e-002 1763.2468 3481.6714)" fill="#2A2D4B" width="33.2" height="40"/>
							
								<rect x="2532.6" y="863.6" transform="matrix(-1.113229e-002 -0.9999 0.9999 -1.113229e-002 1708.0956 3428.332)" fill="#52607C" width="33.2" height="12"/>
						</g>
					</g>
				</g>
			</g>
			<path fill="#2A2D4B" d="M251.1,1626.3c-73.1,0-132.6-59.5-132.6-132.6c0-73.1,59.5-132.6,132.6-132.6h1560.8
				c50.1,0,90.8-40.7,90.8-90.8v-8.9h134.5c48.8,0,88.4-39.7,88.4-88.4V807.7c0-47.6,38.7-86.3,86.3-86.3h254.1
				c16.8,0,30.4,13.6,30.4,30.4v1.4h-37.4c-22.1,0-40.1,18-40.1,40.1v19.4h14.6v-19.4c0-14.1,11.5-25.5,25.5-25.5h37.4v45h14.6v-45
				h39.3c14.1,0,25.5,11.5,25.5,25.5V811h14.6v-17.7c0-22.1-18-40.1-40.1-40.1h-39.3v-1.4c0-24.8-20.2-45-45-45H2212
				c-55.6,0-100.9,45.3-100.9,100.9V1173c0,40.7-33.1,73.8-73.8,73.8h-134.5v-109.1c0-35.1-24.7-64.4-57.6-71.6v-42.5
				c0-23.1-18.8-41.9-41.9-41.9h-22.9v14.6h22.9c15.1,0,27.3,12.2,27.3,27.3v40.8c-0.4,0-0.8,0-1.1,0h-48.1v14.6h48.1
				c0.4,0,0.8,0,1.1,0v44.1c0,11.5-9.4,20.9-20.9,20.9h-27.5v14.6h27.5c19.6,0,35.5-15.9,35.5-35.5v-42c24.8,6.9,43,29.7,43,56.6
				v132.5c0,42-34.2,76.2-76.2,76.2H847V862.8c0-50.9-41.4-92.4-92.4-92.4h-73.9c-21.7,0-39.4,17.7-39.4,39.4H656
				c0-13.7,11.1-24.8,24.8-24.8h73.9c42.9,0,77.8,34.9,77.8,77.8v483.8H251.1c-81.1,0-147.2,66-147.2,147.2
				c0,81.1,66,147.2,147.2,147.2h2587.5v-14.6H251.1z"/>
		</g>
		<g>
			<rect x="2781.3" y="1406.3" fill="#434D6A" width="15.1" height="87"/>
			<rect x="2754" y="1493.2" fill="#2A2D4B" width="69.7" height="13.2"/>
			<rect x="2753.1" y="1393.1" fill="#2A2D4B" width="69.7" height="13.2"/>
			<path fill="#DA927E" d="M2889.5,1519.7h-201.1c-3.7,0-6.6-3-6.6-6.6l0,0c0-3.7,3-6.6,6.6-6.6h201.1c3.7,0,6.6,3,6.6,6.6l0,0
				C2896.1,1516.7,2893.1,1519.7,2889.5,1519.7z"/>
			<path fill="#DA927E" d="M2889.5,1718.7h-201.1c-3.7,0-6.6-3-6.6-6.6l0,0c0-3.7,3-6.6,6.6-6.6h201.1c3.7,0,6.6,3,6.6,6.6l0,0
				C2896.1,1715.7,2893.1,1718.7,2889.5,1718.7z"/>
			<rect x="2695.1" y="1519.7" fill="#995042" width="185.8" height="185.8"/>
			<g>
				<defs>
					<path id="XMLID_7_" d="M2852.1,1393.1h-128.2c-2,0-3.7-1.6-3.7-3.7v-29.3c0-2,1.6-3.7,3.7-3.7h128.2c2,0,3.7,1.6,3.7,3.7v29.3
						C2855.7,1391.4,2854.1,1393.1,2852.1,1393.1z"/>
				</defs>
				<use xlink:href="#XMLID_7_"  overflow="visible" fill="#F26522"/>
				<clipPath id="XMLID_21_">
					<use xlink:href="#XMLID_7_"  overflow="visible"/>
				</clipPath>
				<path clip-path="url(#XMLID_21_)" fill="#F7941D" d="M2861,1369.5h-138.1c-6.3,0-11.3-5.1-11.3-11.3l0,0
					c0-6.3,5.1-11.3,11.3-11.3H2861c6.3,0,11.3,5.1,11.3,11.3l0,0C2872.3,1364.5,2867.2,1369.5,2861,1369.5z"/>
			</g>
			<polygon fill="#754436" points="2713.9,1519.7 2713.9,1537 2831.9,1537 2831.9,1691.2 2713.9,1691.2 2713.9,1705.5 
				2880.8,1705.5 2880.8,1519.7 			"/>
			<g>
				<rect x="2723.6" y="1519.7" fill="#DA927E" width="8" height="185.8"/>
				<rect x="2763.8" y="1519.7" fill="#DA927E" width="8" height="185.8"/>
				<rect x="2805.1" y="1519.7" fill="#DA927E" width="8" height="185.8"/>
				<rect x="2845.3" y="1519.7" fill="#DA927E" width="8" height="185.8"/>
			</g>
		</g>
	</g>
</g>
</svg>
