<svg width="512" height="159" viewBox="0 0 512 159" fill="none" xmlns="http://www.w3.org/2000/svg">
<path d="M512 0H0V158.987H512V0Z" fill="#4786FC"/>
<path d="M310.748 37.754C315.565 50.7839 318.193 64.8869 318.193 79.6031C318.193 94.3192 315.565 108.4 310.748 121.452C305.623 135.336 298.002 148.038 288.432 158.987H257.489H181.937H106.386C87.859 137.767 76.6248 109.999 76.6248 79.6031C76.6248 49.0977 87.9247 21.264 106.561 0H182.113H257.664H288.213L310.748 37.754Z" fill="#4483FC"/>
<path d="M363.984 158.987H181.937C163.411 137.767 152.177 109.999 152.177 79.6031C152.177 49.1196 163.476 21.264 182.113 0H363.765C382.401 21.264 393.701 49.1196 393.701 79.6031C393.745 109.999 382.533 137.767 363.984 158.987Z" fill="#3F80FD"/>
<path d="M439.536 158.987H257.489C238.962 137.767 227.728 109.999 227.728 79.6031C227.728 49.1196 239.028 21.264 257.664 0H439.317C457.953 21.264 469.253 49.1196 469.253 79.6031C469.297 109.999 458.084 137.767 439.536 158.987Z" fill="#3C7DFB"/>
<path d="M333.238 0H512V158.987H333.063C314.536 137.767 303.302 109.999 303.302 79.6031C303.302 49.1196 314.602 21.264 333.238 0Z" fill="#377BF9"/>
<path d="M400.95 158.987H512V0H401.125C382.489 21.264 371.189 49.1196 371.189 79.6031C371.189 109.999 382.423 137.767 400.95 158.987Z" fill="#3275F4"/>
<path d="M473.392 0H512V158.987H473.217C454.69 137.767 443.456 109.999 443.456 79.6031C443.456 49.1196 454.756 21.264 473.392 0Z" fill="#2E71EF"/>
</svg>
