<svg width="512" height="549" viewBox="0 0 512 549" fill="none" xmlns="http://www.w3.org/2000/svg">
<path d="M0 0V548.96H478.169C470.042 514.471 451.699 466.437 431.429 413.357C410.071 357.428 386.574 295.897 370.632 238.703C338.768 124.383 402.05 72.1318 445.262 43.3243C456.934 35.5426 468.165 28.7335 478.197 22.6511C492.761 13.8205 504.8 6.52129 512 0H0Z" fill="#FF6752"/>
<g style="mix-blend-mode:multiply">
<path d="M0 0V548.96H396.653C388.771 446.494 364.136 385.181 340.94 327.452C324.809 287.304 309.374 248.89 300.754 199.571C278.071 69.7859 348.832 14.5286 394.066 0H0Z" fill="url(#paint0_linear_1_17)" fill-opacity="0.15"/>
</g>
<g style="mix-blend-mode:multiply">
<path d="M0 0V548.96H277.768C226.676 446.581 183.671 341.666 178.328 270.287C165.172 94.5219 301.623 52.0156 442.183 8.2294L442.189 8.22755L442.192 8.2267C450.944 5.50027 459.712 2.76886 468.461 0H0Z" fill="url(#paint1_linear_1_17)" fill-opacity="0.15"/>
</g>
<defs>
<linearGradient id="paint0_linear_1_17" x1="6.52121e-06" y1="548.96" x2="396.906" y2="-2.92756e-05" gradientUnits="userSpaceOnUse">
<stop stop-color="#FEB53A"/>
<stop offset="1" stop-color="#FF6752"/>
</linearGradient>
<linearGradient id="paint1_linear_1_17" x1="1.06442e-05" y1="548.96" x2="468.461" y2="-1.50496e-06" gradientUnits="userSpaceOnUse">
<stop stop-color="#FEB53A"/>
<stop offset="1" stop-color="#D65C15"/>
</linearGradient>
</defs>
</svg>
