<svg width="882" height="520" viewBox="0 0 882 520" fill="none" xmlns="http://www.w3.org/2000/svg">
<path d="M0 2.28882e-05L4.19617e-05 520H882L882 0L0 2.28882e-05Z" fill="#FD6845"/>
<path d="M0 2.28882e-05L0.000109637 520H882V402.2C845.602 362.21 735.528 340.035 612.628 315.277L612.627 315.276C565.494 305.781 516.474 295.906 469 284.5C321.86 249.148 198.543 199.025 162.5 166C86.4428 96.3121 98.3245 29.6657 116.296 0L0 2.28882e-05Z" fill="#EA5E41"/>
<path d="M0 2.47955e-05L4.57764e-05 520H882V499.127C461.918 439.521 268.774 334.01 134.5 217C43.094 137.346 78.0471 51.3867 116.327 2.47955e-05H0Z" fill="#E25A40"/>
</svg>
