<svg width="512" height="729" viewBox="0 0 512 729" fill="none" xmlns="http://www.w3.org/2000/svg">
<path d="M0 728.133C5.26375 727.817 10.4817 727.475 15.6542 727.107L15.1525 720.055C10.1451 720.412 5.09434 720.744 0 721.051V728.133Z" fill="#FD6845"/>
<path d="M0 7.21003C2.43942 7.14751 4.87392 7.10045 7.30343 7.06868L7.21101 0C4.81208 0.0313637 2.40838 0.0774689 0 0.138446V7.21003Z" fill="#FD6845"/>
<path d="M76.8875 3.26759C65.3995 2.02956 53.77 1.12835 42.0103 0.580286L41.6812 7.64191C53.2974 8.18328 64.784 9.07345 76.13 10.2962L76.8875 3.26759Z" fill="#FD6845"/>
<path d="M145.728 15.0029C134.498 12.3645 123.091 10.0504 111.522 8.07863L110.334 15.0474C121.759 16.9946 133.022 19.2797 144.111 21.8848L145.728 15.0029Z" fill="#FD6845"/>
<path d="M212.529 35.1799C201.695 31.1476 190.646 27.4235 179.395 24.0275L177.352 30.7952C188.46 34.148 199.368 37.8246 210.063 41.8052L212.529 35.1799Z" fill="#FD6845"/>
<path d="M276.335 63.6951C266.113 58.3109 255.631 53.2117 244.905 48.4196L242.022 54.874C252.608 59.6039 262.953 64.6365 273.041 69.9498L276.335 63.6951Z" fill="#FD6845"/>
<path d="M335.804 100.211C326.401 93.5336 316.689 87.1122 306.683 80.9714L302.985 86.9964C312.857 93.0549 322.437 99.3892 331.711 105.975L335.804 100.211Z" fill="#FD6845"/>
<path d="M389.835 144.536C381.444 136.589 372.68 128.866 363.563 121.394L359.082 126.862C368.07 134.228 376.707 141.839 384.973 149.669L389.835 144.536Z" fill="#FD6845"/>
<path d="M436.848 196.341C429.784 187.213 422.274 178.266 414.338 169.534L409.106 174.288C416.919 182.885 424.31 191.689 431.257 200.667L436.848 196.341Z" fill="#FD6845"/>
<path d="M474.793 255.13C469.427 244.911 463.522 234.822 457.102 224.899L451.167 228.74C457.474 238.488 463.27 248.392 468.534 258.416L474.793 255.13Z" fill="#FD6845"/>
<path d="M500.986 320.073C497.819 308.944 494 297.878 489.559 286.914L483.007 289.569C487.356 300.305 491.092 311.132 494.187 322.008L500.986 320.073Z" fill="#FD6845"/>
<path d="M512 389.294C511.632 377.651 510.495 365.981 508.62 354.332L501.641 355.455C503.469 366.816 504.576 378.185 504.934 389.517L512 389.294Z" fill="#FD6845"/>
<path d="M504.549 459.034C507.447 447.607 509.494 436.052 510.725 424.418L503.695 423.674C502.499 434.979 500.51 446.202 497.697 457.296L504.549 459.034Z" fill="#FD6845"/>
<path d="M477.775 523.851C483.834 513.566 489.056 503.07 493.47 492.407L486.939 489.703C482.652 500.059 477.576 510.26 471.684 520.263L477.775 523.851Z" fill="#FD6845"/>
<path d="M434.792 579.111C443.255 570.589 450.983 561.823 457.995 552.847L452.424 548.495C445.589 557.245 438.047 565.801 429.776 574.129L434.792 579.111Z" fill="#FD6845"/>
<path d="M380.58 623.424C390.599 616.713 400.005 609.763 408.812 602.594L404.349 597.112C395.719 604.137 386.49 610.957 376.646 617.55L380.58 623.424Z" fill="#FD6845"/>
<path d="M319.657 657.561C330.411 652.522 340.676 647.27 350.462 641.818L347.021 635.642C337.385 641.011 327.268 646.188 316.658 651.159L319.657 657.561Z" fill="#FD6845"/>
<path d="M254.51 683.362C265.995 679.543 277.058 675.524 287.708 671.316L285.11 664.742C274.586 668.9 263.645 672.875 252.28 676.654L254.51 683.362Z" fill="#FD6845"/>
<path d="M187.724 702.123C199.346 699.4 210.622 696.502 221.557 693.436L219.649 686.629C208.814 689.666 197.637 692.54 186.111 695.241L187.724 702.123Z" fill="#FD6845"/>
<path d="M119.474 715.419C131.138 713.57 142.513 711.568 153.601 709.416L152.255 702.477C141.248 704.612 129.954 706.601 118.367 708.437L119.474 715.419Z" fill="#FD6845"/>
<path d="M50.4288 724.181C62.1347 723.04 73.5906 721.759 84.7995 720.344L83.9141 713.331C72.7732 714.737 61.3838 716.01 49.7427 717.145L50.4288 724.181Z" fill="#FD6845"/>
</svg>
