<svg width="743" height="569" viewBox="0 0 743 569" fill="none" xmlns="http://www.w3.org/2000/svg">
    <path d="M743 1.3725C735.37 0.685008 727.643 0.333496 719.833 0.333496C579.093 0.333496 465 114.426 465 255.167C465 395.907 579.093 510 719.833 510C727.643 510 735.37 509.649 743 508.961V1.3725Z" fill="#FFE530" />
    <path d="M743 2.33991C733.624 1.01761 724.042 0.333496 714.301 0.333496C601.823 0.333496 510.642 91.5148 510.642 203.993C510.642 316.471 601.823 407.652 714.301 407.652C724.042 407.652 733.624 406.968 743 405.645V2.33991Z" fill="#FFDD2A" fill-opacity="0.8" />
    <path d="M743 1.96882C735.433 0.891322 727.698 0.333496 719.833 0.333496C629.889 0.333496 556.975 73.2476 556.975 163.192C556.975 253.136 629.889 326.05 719.833 326.05C727.698 326.05 735.433 325.492 743 324.415V1.96882Z" fill="#FFD02A" fill-opacity="0.4" />
    <path d="M2.38419e-06 408.328C2.41032 408.111 4.85131 408 7.31818 408C51.7771 408 87.8182 444.041 87.8182 488.5C87.8182 532.959 51.7771 569 7.31818 569C4.85131 569 2.41032 568.889 2.38419e-06 568.672V408.328Z" fill="#FFE530" />
    <path d="M8.82149e-06 408.634C2.96193 408.216 5.98864 408 9.06581 408C44.5967 408 73.4003 436.803 73.4003 472.334C73.4003 507.865 44.5967 536.669 9.06581 536.669C5.98864 536.669 2.96193 536.453 8.82149e-06 536.035V408.634Z" fill="#FFDD2A" fill-opacity="0.8" />
    <path d="M2.16067e-05 408.517C2.39042 408.176 4.83375 408 7.3182 408C35.7309 408 58.7639 431.033 58.7639 459.446C58.7639 487.858 35.7309 510.891 7.3182 510.891C4.83375 510.891 2.39042 510.715 2.16067e-05 510.375V408.517Z" fill="#FFD02A" fill-opacity="0.4" />
</svg>