<svg width="512" height="415" viewBox="0 0 512 415" fill="none" xmlns="http://www.w3.org/2000/svg">
<g clip-path="url(#clip0_62_240)">
<path d="M426.138 97.9581C410.552 125.957 394.569 154.631 361.89 182.829C310.611 227.049 189.73 206.029 155.424 200.08C153.124 199.684 151.181 199.327 149.713 199.089C67.262 185.684 19.671 200.279 0 208.885V293.319V341.783V414.319C42.118 364.587 142.099 281.104 264.328 280.192C395.045 279.24 475.989 297.84 512 310.531V0.118896C463.814 30.2995 445.254 63.6132 426.138 97.9581Z" fill="#4487FF"/>
<path d="M463.933 90.4626C459.134 109.023 453.265 131.629 443.39 160.818C409.878 260.164 269.682 238.748 138.807 217.134C71.2279 205.99 26.4527 209.837 0 217.134V293.319V358.995V414.32C42.118 364.587 142.099 281.104 264.328 280.192C395.045 279.24 475.989 297.84 512 310.531V0.158691C480.074 28.3167 474.601 49.4154 463.933 90.4626Z" fill="#3874E8"/>
<path d="M0 293.319V414.319C42.118 364.587 142.099 281.104 264.328 280.192C395.045 279.24 475.989 297.84 512 310.531C450.925 276.226 315.608 220.505 167.758 245.887C81.4203 260.719 29.3875 278.407 0 293.319Z" fill="#3169DB"/>
</g>
<defs>
<clipPath id="clip0_62_240">
<rect width="512" height="414.438" fill="white"/>
</clipPath>
</defs>
</svg>
