<svg width="512" height="259" viewBox="0 0 512 259" fill="none" xmlns="http://www.w3.org/2000/svg">
<path d="M512 68.7458V0H0V255.757C26.2675 258.432 73.1764 260.988 103.067 254.8C144.933 246.133 186.667 229.333 226.133 173.333C229.482 168.582 232.833 163.657 236.242 158.647C264.497 117.123 296.744 69.7314 364.8 66.4C398.671 64.742 423.285 66.7131 445.089 68.4592C468.002 70.2941 487.812 71.8805 512 68.7458Z" fill="#FF6752"/>
<g style="mix-blend-mode:multiply" opacity="0.15">
<path d="M512 71.6409V0H0V223.585C47.1803 230.648 132.601 223.362 180.8 167.867C191.743 155.267 201.57 143.036 210.884 131.444C266.083 62.7415 303.286 16.4373 448.4 48.2667C470.679 53.1533 491.984 61.1817 512 71.6409Z" fill="url(#paint0_linear_25_93)"/>
</g>
<g style="mix-blend-mode:multiply" opacity="0.15">
<path d="M512 68.3401V0H0V213.368C26.2485 210.335 67.5499 191.465 104.933 131.333C164.533 35.4667 250.409 26.2691 329.333 36.8C367.131 41.8432 384.703 46.4233 401.669 50.8453C424.199 56.7177 445.66 62.3112 512 68.3401Z" fill="url(#paint1_linear_25_93)"/>
</g>
<defs>
<linearGradient id="paint0_linear_25_93" x1="-3.60868e-06" y1="0.133339" x2="509.6" y2="285.333" gradientUnits="userSpaceOnUse">
<stop stop-color="#FEB53A"/>
<stop offset="1" stop-color="#D65C15"/>
</linearGradient>
<linearGradient id="paint1_linear_25_93" x1="-1.60001" y1="-2.93332" x2="514.533" y2="288" gradientUnits="userSpaceOnUse">
<stop stop-color="#FEB53A"/>
<stop offset="1" stop-color="#D65C15"/>
</linearGradient>
</defs>
</svg>
